PathFileType	4	(X/Y/Z)	./resultDataOpenSim/trcMotMarkerGrf/sub10/qtm-03-07.trc
DataRate	CameraRate	NumFrames	NumMarkers	Units	OrigDataRate	OrigDataStartFrame	OrigNumFrames
250.000000	250.000000	14	24	m	250.000000	324	517
Frame#	Time	L.Toe.Tip			R.Toe.Tip			L.Ankle.Lat			R.Ankle.Lat			L.Ankle.Med			R.Ankle.Med			L.Heel			R.Heel			L.Knee.Lat			R.Knee.Lat			L.Knee.Med			R.Knee.Med			L.Thigh.Upper			R.Thigh.Upper			L.ASIS			R.ASIS			V.Sacral			L.Acromium			R.Acromium			C7			L.Elbow			R.Elbow			L.Wrist.Lat			R.Wrist.Lat
		X1	Y1	Z1	X2	Y2	Z2	X3	Y3	Z3	X4	Y4	Z4	X5	Y5	Z5	X6	Y6	Z6	X7	Y7	Z7	X8	Y8	Z8	X9	Y9	Z9	X10	Y10	Z10	X11	Y11	Z11	X12	Y12	Z12	X13	Y13	Z13	X14	Y14	Z14	X15	Y15	Z15	X16	Y16	Z16	X17	Y17	Z17	X18	Y18	Z18	X19	Y19	Z19	X20	Y20	Z20	X21	Y21	Z21	X22	Y22	Z22	X23	Y23	Z23	X24	Y24	Z24

324	1.292	0.037636273	-0.0074011359	-0.07226316	0.83431981	0.058571403	0.067698926	-0.063567487	0.080412146	-0.10407083	0.69560124	0.053339046	0.1111746	-0.04437029	0.098783546	-0.023803681	0.70897153	0.085014533	0.027872337	-0.13104648	0.089032837	-0.061359657	0.64878337	0.02369184	0.064551254	0.1534558	0.40109309	-0.14393156	0.60350113	0.44061889	0.13183142	0.16785604	0.3716132	-0.023181321	0.61677853	0.4481659	0.002644258	0.28514169	0.77100183	-0.19493538	0.41167272	0.79723825	0.17777917	0.3776987	0.86420173	-0.16017636	0.4508928	0.88257944	0.077950595	0.22455155	0.88426298	0.02644194	0.37586948	1.345626	-0.17923264	0.34840108	1.3430201	0.14246829	0.27901889	1.370735	-0.029688834	0.41866974	1.0014222	-0.23693691	0.18352838	1.0319859	0.14781875	0.64530913	0.92419087	-0.17074904	0.19870421	0.82013784	0.25945913
325	1.296	0.038443617	-0.0073524215	-0.072346154	0.83591666	0.056550044	0.067874233	-0.060240489	0.083085525	-0.10516393	0.69717106	0.053264659	0.1113493	-0.040661488	0.10100829	-0.025063751	0.71092782	0.084633721	0.0279136	-0.12732203	0.093110289	-0.06232401	0.64979841	0.024468903	0.064834982	0.16003694	0.40163225	-0.14426354	0.60988336	0.44154447	0.13154291	0.1744289	0.37180472	-0.023653619	0.62297974	0.44892704	0.0022107286	0.29258975	0.77092886	-0.19450484	0.41812649	0.79826477	0.17840777	0.38524631	0.86422788	-0.15945051	0.45747221	0.88349068	0.078635633	0.2310971	0.88520951	0.026333395	0.38236526	1.3464753	-0.1784609	0.35500926	1.3434676	0.14330164	0.2854496	1.3711985	-0.028756603	0.42391568	1.0019433	-0.23626551	0.19062915	1.0323762	0.14822455	0.65043606	0.92408241	-0.17019595	0.20410839	0.82051029	0.25970243
326	1.3	0.039321065	-0.0073203609	-0.072419536	0.83752106	0.054493389	0.068122303	-0.05668311	0.085775175	-0.10628207	0.69873363	0.053207721	0.11155018	-0.036631086	0.10323759	-0.026330212	0.71286329	0.084309695	0.027995156	-0.12325068	0.097248349	-0.063299743	0.6508251	0.02522809	0.065130869	0.16687705	0.40215988	-0.14462018	0.61634773	0.44270388	0.13123851	0.1812093	0.37201817	-0.02412165	0.628995	0.44989301	0.0017530451	0.30014812	0.77081165	-0.1941001	0.42463232	0.79940007	0.17904476	0.39287566	0.86429003	-0.15864427	0.46417061	0.88451549	0.079430998	0.23775934	0.88623779	0.026094208	0.38893084	1.3474126	-0.17765494	0.3616403	1.3440004	0.14413048	0.29193217	1.3717511	-0.027788957	0.42909024	1.002552	-0.23559487	0.19773336	1.0328545	0.14879466	0.65545428	0.92395141	-0.16969186	0.20963773	0.82095242	0.25996805
327	1.304	0.040268159	-0.0073123232	-0.072486843	0.83913272	0.052194512	0.068383127	-0.052879991	0.088472811	-0.10742352	0.70027146	0.053146866	0.1117521	-0.032272008	0.10546089	-0.027586559	0.71479607	0.084004333	0.028077274	-0.11877956	0.10144091	-0.064300589	0.6518096	0.025964097	0.065415469	0.17400071	0.40267183	-0.14501004	0.62295778	0.44399138	0.13098035	0.18820368	0.37223199	-0.024585738	0.63470215	0.45099718	0.0013900033	0.30780186	0.77065248	-0.19371279	0.43117475	0.8006571	0.17966841	0.40057311	0.86438372	-0.15776038	0.47098045	0.88565642	0.080307103	0.24460392	0.88726058	0.025728847	0.39555379	1.348424	-0.17680895	0.36827431	1.3446055	0.14494207	0.29845476	1.3723857	-0.026775586	0.43419011	1.0032425	-0.2349395	0.20487182	1.0333937	0.14942621	0.66036261	0.92378977	-0.16923834	0.21529092	0.82145724	0.26025804
328	1.308	0.041300572	-0.0073257817	-0.072567268	0.84068642	0.049706217	0.068546758	-0.048810625	0.091167645	-0.10858636	0.70175621	0.053059506	0.11192331	-0.02757309	0.10764467	-0.028847689	0.71669002	0.083681852	0.028110676	-0.11391235	0.10567302	-0.065294747	0.65270861	0.026653237	0.065702737	0.1814106	0.40315642	-0.14543672	0.62974727	0.44531116	0.13082223	0.19539467	0.37239948	-0.02508163	0.64002873	0.45216542	0.0012311585	0.31553566	0.77045544	-0.19332628	0.43773683	0.8020491	0.18024924	0.40832348	0.86450547	-0.15681227	0.47787845	0.88691282	0.081224018	0.25154914	0.88821483	0.025303993	0.4022237	1.3495012	-0.17592527	0.37490072	1.3452754	0.14573894	0.30501386	1.3731069	-0.025739612	0.43921792	1.0040079	-0.23429619	0.21220992	1.0339273	0.14994589	0.66516479	0.92359356	-0.16883506	0.22107128	0.82201943	0.26057258
329	1.312	0.042451163	-0.0073578088	-0.072688402	0.8421522	0.047294112	0.068500773	-0.044450782	0.093841586	-0.10976632	0.70317247	0.052954561	0.1120134	-0.022528822	0.10975298	-0.030136202	0.7184668	0.083325626	0.028040351	-0.10867995	0.10992252	-0.066225727	0.65350706	0.027266842	0.066005678	0.18911966	0.40359452	-0.14589421	0.63656656	0.44658373	0.13073483	0.20277622	0.37248363	-0.025644569	0.64508792	0.45335634	0.0012188592	0.32333205	0.77022379	-0.19292073	0.44432362	0.80357874	0.18076689	0.41611115	0.86465179	-0.15582043	0.48484186	0.88828051	0.08214741	0.25848787	0.88908852	0.024871706	0.40893042	1.3506373	-0.17501072	0.38151949	1.3460114	0.14653976	0.31161544	1.3739304	-0.024749111	0.44418195	1.0048452	-0.23366662	0.21984892	1.0344125	0.15025466	0.66986872	0.92336565	-0.16848171	0.22698046	0.82263675	0.26091378
330	1.316	0.043752009	-0.0074231739	-0.072866537	0.84357121	0.045258223	0.068203874	-0.039779208	0.096471243	-0.11095346	0.70451901	0.052870054	0.11196953	-0.017134134	0.1117542	-0.03146906	0.72004019	0.082933442	0.027824665	-0.1030693	0.11417106	-0.067053092	0.65421631	0.027787745	0.066295769	0.19715479	0.40396165	-0.14637011	0.64312567	0.44774062	0.13061029	0.21036863	0.37246991	-0.026295289	0.6501129	0.45455683	0.0011524776	0.3311685	0.76995973	-0.19248905	0.45095556	0.8052324	0.18121408	0.42392083	0.86481933	-0.15480225	0.49184962	0.8897478	0.083055506	0.2653906	0.88991284	0.024431676	0.41566674	1.3518207	-0.17406785	0.38812881	1.3468154	0.14736087	0.31826328	1.3748574	-0.023875402	0.44908838	1.0057537	-0.23306397	0.22766893	1.0348944	0.15044472	0.67448268	0.9231107	-0.16817831	0.23301419	0.82330472	0.26128543
331	1.32	0.045222088	-0.0075589341	-0.073097344	0.84497984	0.043723935	0.067724553	-0.034780202	0.099027618	-0.11213262	0.70579121	0.052844923	0.11176793	-0.01137471	0.11361463	-0.032853482	0.72134974	0.082505689	0.027461098	-0.097020977	0.11840774	-0.067762652	0.65485404	0.028222844	0.066509268	0.20553384	0.40423244	-0.14685707	0.64924693	0.44872671	0.1303672	0.21821631	0.37234996	-0.02704256	0.65519725	0.45573469	0.00091268045	0.33902659	0.76967426	-0.19205139	0.45765307	0.80698802	0.18159519	0.43174003	0.86500554	-0.15376271	0.49888001	0.89129667	0.083935727	0.27227414	0.89072746	0.023959241	0.42242862	1.3530368	-0.17309136	0.39472022	1.3476854	0.14820283	0.32493974	1.3758447	-0.02312678	0.45393522	1.0067308	-0.23249829	0.23540136	1.0354801	0.15073019	0.67901017	0.92282821	-0.16792384	0.23916687	0.82401395	0.26169229
332	1.324	0.046857932	-0.0078091405	-0.0733717	0.84633081	0.0425984	0.067197472	-0.029442634	0.1014788	-0.11329329	0.70696731	0.052891636	0.11142588	-0.0052305716	0.11530297	-0.034280621	0.72237107	0.082042114	0.026996403	-0.090484423	0.12262256	-0.068353231	0.65543183	0.028594479	0.066593624	0.21425326	0.40438588	-0.1473624	0.65495875	0.44951624	0.13000865	0.22637969	0.37210878	-0.027881216	0.66022912	0.45682617	0.00054530644	0.3469034	0.76938837	-0.19164503	0.46442478	0.80882658	0.18192435	0.43956291	0.86521214	-0.15268906	0.50591485	0.89291075	0.084783364	0.27914777	0.8915521	0.023440723	0.42920077	1.3542734	-0.17208191	0.40128648	1.3486163	0.14905175	0.33160714	1.3768241	-0.022436913	0.45872118	1.0077663	-0.23196383	0.24286831	1.0362531	0.15124806	0.68344995	0.92251236	-0.16771696	0.24543788	0.82475579	0.26213737
333	1.328	0.04862264	-0.0081983447	-0.073693993	0.84752479	0.041720554	0.066736176	-0.023753653	0.10379725	-0.11443572	0.70801762	0.052986486	0.11099199	0.001321635	0.1168095	-0.035718473	0.72312092	0.081549685	0.026503687	-0.083450846	0.12680183	-0.068836033	0.65595316	0.028916584	0.066552298	0.22329332	0.40440772	-0.14790482	0.66036339	0.45011345	0.12957454	0.23491753	0.37172523	-0.028789778	0.66506108	0.45777021	0.0001411611	0.35480738	0.76911605	-0.19129687	0.47126219	0.81073526	0.18222163	0.44739282	0.86544749	-0.15154866	0.51293971	0.89457629	0.085600234	0.28600318	0.89238994	0.022889136	0.43595088	1.3555225	-0.17105438	0.40782546	1.3495953	0.14988749	0.33822543	1.3777661	-0.021703925	0.4634563	1.0088513	-0.23144533	0.25011378	1.0372176	0.15195417	0.68780136	0.92215843	-0.16755726	0.25183085	0.8255264	0.26262099
334	1.332	0.050453026	-0.0087054701	-0.074083905	0.84850387	0.041000893	0.066379546	-0.017689793	0.10596414	-0.11556413	0.70891214	0.053088961	0.11053449	0.00829423	0.11815103	-0.037122505	0.72366485	0.081052778	0.026034751	-0.075954492	0.13093087	-0.069246844	0.65640902	0.029183025	0.066445574	0.23261937	0.40429341	-0.14850187	0.66553876	0.45053573	0.1290871	0.24387345	0.37117572	-0.029731371	0.6696264	0.45853235	-0.00025749957	0.36274195	0.76885368	-0.19100906	0.47814524	0.81270252	0.18250826	0.45522866	0.86572084	-0.15030779	0.51993594	0.89627439	0.08638779	0.2928348	0.89325587	0.02231537	0.44265243	1.3567793	-0.17002149	0.41433655	1.3506023	0.15069978	0.34476118	1.3786993	-0.020845148	0.4681563	1.0099894	-0.23093632	0.25732898	1.0382987	0.15268603	0.69206605	0.92176562	-0.16744316	0.25834796	0.82632339	0.26314441
335	1.336	0.05229223	-0.0092533508	-0.074559904	0.8492808	0.040422181	0.0661015	-0.011230903	0.10798231	-0.11668268	0.70961906	0.053172869	0.11012383	0.015654237	0.11935894	-0.038460083	0.72408344	0.080588786	0.025601182	-0.068064666	0.13500538	-0.069644091	0.65678241	0.029380397	0.066348898	0.24217997	0.40405698	-0.14916566	0.67054131	0.45080693	0.12854924	0.25326383	0.3704364	-0.030668531	0.67392769	0.45910225	-0.00065252639	0.37069048	0.76858937	-0.190753	0.48505328	0.81471306	0.18279936	0.46303698	0.86603234	-0.14897479	0.52687961	0.89797941	0.087145072	0.2996636	0.89418326	0.021699727	0.44929995	1.3580401	-0.16898357	0.4208193	1.3516228	0.15149709	0.35120469	1.3796654	-0.019866381	0.47282707	1.011182	-0.23044796	0.2646865	1.0393913	0.15329899	0.69624725	0.92133428	-0.16736989	0.26498886	0.82714206	0.26371213
336	1.34	0.054130152	-0.0097188089	-0.075109882	0.84989089	0.039980515	0.065858991	-0.0044027319	0.10989932	-0.1178003	0.71012471	0.053236112	0.10980176	0.023309668	0.1204792	-0.039721893	0.72441048	0.080185716	0.025204766	-0.059872585	0.13904487	-0.070079483	0.65706667	0.029506306	0.066307995	0.25192356	0.4037336	-0.14990339	0.67541681	0.45095928	0.12796513	0.26306515	0.36949095	-0.031586809	0.67799362	0.45948858	-0.0010573434	0.37862097	0.76831453	-0.1904745	0.49196692	0.81674888	0.18309704	0.47076057	0.86637253	-0.14760711	0.53375354	0.8996712	0.087872875	0.3065445	0.895194	0.021034559	0.45589473	1.3592979	-0.16794053	0.42726867	1.3526568	0.15229273	0.35758775	1.3806817	-0.018871958	0.47746116	1.0124128	-0.22999869	0.27220559	1.0404314	0.15378471	0.70034996	0.9208635	-0.16733451	0.27175356	0.82797579	0.26432954
337	1.344	0.056015957	-0.0099538136	-0.075683299	0.85035659	0.039657544	0.06563363	0.0027042336	0.11180878	-0.11892848	0.71045806	0.053287801	0.10956379	0.031135917	0.12158425	-0.040913711	0.72463554	0.079846793	0.024858039	-0.051474243	0.14309465	-0.070572969	0.65727496	0.029572714	0.066325011	0.26181504	0.40336003	-0.15070237	0.68018927	0.45102876	0.12734733	0.27322737	0.36834402	-0.032496929	0.68185466	0.4597173	-0.0014796962	0.38651063	0.76802391	-0.19012664	0.49886546	0.81879309	0.18339668	0.4783649	0.86673219	-0.14626174	0.54055485	0.90134971	0.088571687	0.31356183	0.89630313	0.020414726	0.46243427	1.3605465	-0.16689955	0.43367147	1.3537117	0.1530902	0.36395757	1.3817318	-0.017963703	0.48205166	1.0136673	-0.22959606	0.27977061	1.0414216	0.15426642	0.70437866	0.92035274	-0.16733936	0.27864325	0.82881943	0.26500021
